<svg width="24" height="24" viewBox="0 0 24 24" fill="none" xmlns="http://www.w3.org/2000/svg">
<path d="M17.9199 14.3202C17.6599 14.5702 17.5399 14.9392 17.6009 15.2902L18.4899 20.2102C18.5609 20.6302 18.3909 21.0492 18.0399 21.2902C17.6999 21.5402 17.2499 21.5702 16.8699 21.3702L12.4409 19.0602C12.2799 18.9802 12.1099 18.9292 11.9409 18.9292H11.6699C11.5699 18.9392 11.4809 18.9802 11.3999 19.0192L6.96989 21.3402C6.74989 21.4502 6.49989 21.4902 6.25989 21.4502C5.65989 21.3302 5.27089 20.7692 5.36989 20.1792L6.25989 15.2592C6.31989 14.9002 6.19989 14.5402 5.94089 14.2802L2.32989 10.7802C2.02989 10.4802 1.91989 10.0492 2.06089 9.65024C2.19089 9.25924 2.52989 8.96924 2.94989 8.90024L7.91989 8.17924C8.29989 8.13924 8.62989 7.91024 8.79989 7.57024L10.9899 3.08024C11.0399 2.98024 11.1099 2.88924 11.1909 2.81024L11.2799 2.74024C11.3199 2.68924 11.3799 2.65024 11.4409 2.61024L11.5499 2.57024L11.7199 2.50024H12.1409C12.5209 2.54024 12.8509 2.76924 13.0209 3.09924L15.2399 7.57024C15.3999 7.90024 15.7099 8.12024 16.0699 8.17924L21.0399 8.90024C21.4599 8.96024 21.8109 9.25024 21.9499 9.65024C22.0799 10.0492 21.9699 10.4902 21.6599 10.7802L17.9199 14.3202Z" fill="#DEDEDE"/>
</svg>
